Coordinates
version=1
nRows=5
nColumns=40
inDegrees=yes

Units are S.I. units (second, meters, Newtons, ...)
Angles are in degrees.

endheader
time	pelvis_tilt	pelvis_list	pelvis_rotation	pelvis_tx	pelvis_ty	pelvis_tz	hip_flexion_r	hip_adduction_r	hip_rotation_r	knee_angle_r	knee_angle_r_beta	ankle_angle_r	subtalar_angle_r	mtp_angle_r	hip_flexion_l	hip_adduction_l	hip_rotation_l	knee_angle_l	knee_angle_l_beta	ankle_angle_l	subtalar_angle_l	mtp_angle_l	lumbar_extension	lumbar_bending	lumbar_rotation	arm_flex_r	arm_add_r	arm_rot_r	elbow_flex_r	pro_sup_r	wrist_flex_r	wrist_dev_r	arm_flex_l	arm_add_l	arm_rot_l	elbow_flex_l	pro_sup_l	wrist_flex_l	wrist_dev_l
     36.89000000	     -3.78983372	     -5.25861342	      3.16592218	      1.12405649	      0.93024981	      0.38383922	     27.59011602	     -6.56340268	     -6.16353222	     60.94494922	     60.94494922	      3.40213435	    -15.77833354	      2.46889582	     17.72108097	     -5.20353233	     -4.23822378	     24.93355366	     24.93355366	     13.51654782	    -10.50548675	      0.91938262	    -10.57313958	      4.09385922	      1.13244425	     13.18981073	    -12.35985210	      5.45695242	     36.70094506	     45.72180277	      0.00000000	      0.00000000	      5.98437017	    -15.18123002	     -4.08743135	     51.20261686	     45.96544741	      0.00000000	      0.00000000
     36.90371429	     -3.65716641	     -5.43218977	      2.79652661	      1.12332502	      0.93092463	      0.38353512	     28.15638828	     -6.44521152	     -6.25667101	     59.04253517	     59.04253517	      3.38304606	    -15.42968606	      2.31376895	     17.01766190	     -5.47031309	     -4.60306315	     24.67426350	     24.67426350	     13.78977619	    -10.35864316	      0.79075913	    -10.80961568	      4.33457649	      1.10107143	     11.67986738	    -13.08269996	      5.32402073	     35.45601704	     45.76896222	      0.00000000	      0.00000000	      6.70673183	    -15.43144723	     -4.26796610	     52.08649167	     46.01195661	      0.00000000	      0.00000000
     36.91742857	     -3.53857182	     -5.62360029	      2.43450257	      1.12258537	      0.93156767	      0.38327001	     28.59446347	     -6.28537741	     -6.40240331	     56.86546054	     56.86546054	      3.24571933	    -15.04292740	      2.07261472	     16.32433585	     -5.74586395	     -4.94987854	     24.40033241	     24.40033241	     14.05374335	    -10.22746663	      0.65762791	    -11.03116199	      4.59367429	      1.05064133	     10.22444985	    -13.77092062	      5.04499123	     34.12385197	     45.82961132	      0.00000000	      0.00000000	      7.33062454	    -15.71269913	     -4.39588326	     53.18076552	     46.05549728	      0.00000000	      0.00000000
     36.93114286	     -3.60191115	     -5.72976618	      2.07952683	      1.12168679	      0.93185113	      0.38306463	     29.17273466	     -6.18905703	     -6.50988531	     54.54290793	     54.54290793	      3.15392124	    -14.56244980	      2.19889895	     15.88429573	     -5.89705078	     -5.21956674	     24.20634943	     24.20634943	     14.27618048	    -10.26496560	      0.59839273	    -11.05056537	      4.76401152	      0.56847640	      8.87502098	    -14.32176768	      4.90580922	     33.34551469	     45.85976375	      0.00000000	      0.00000000	      7.79009718	    -16.29370200	     -4.58683765	     53.67748991	     46.08596375	      0.00000000	      0.00000000
     36.94485714	     -3.45104078	     -5.87860459	      1.66647608	      1.12100777	      0.93254357	      0.38302924	     29.27917837	     -5.99629577	     -6.66849789	     51.76396066	     51.76396066	      2.75116862	    -13.97436476	      1.41948921	     15.06218411	     -6.16399793	     -5.76885676	     23.78524014	     23.78524014	     14.51542399	     -9.85825942	      0.32655247	    -11.38474079	      4.93270060	      1.00115674	      7.49649462	    -14.95487287	      4.04862545	     31.32021119	     45.99029910	      0.00000000	      0.00000000	      8.33931683	    -16.39413802	     -4.61677465	     55.90158633	     46.14466176	      0.00000000	      0.00000000
